PathFileType	4	(X/Y/Z)	_05Apr_ss_11ms_01.trc
DataRate	CameraRate	NumFrames	NumMarkers	Units	OrigDataRate	OrigDataStartFrame	OrigNumFrames
200.000000	200.000000	4	42	mm	200.000000	3406	6114
Frame#	Time	LASI			RASI			LPSI			RPSI			LTH1			LTH2			LTH3			LTH4			LMFC			LLFC			LTB1			LTB2			LTB3			LTB4			LMMAL			LLMAL			LCAL			LToe			LMT1			LMT5			RTH1			RTH2			RTH3			RTH4			RMFC			RLFC			RTB1			RTB2			RTB3			RTB4			RMMAL			RLMAL			RCAL			RToe			RMT1			RMT5			C7			T10			LACR1			RACR1			CLAV			RBack			
		X1	Y1	Z1	X2	Y2	Z2	X3	Y3	Z3	X4	Y4	Z4	X5	Y5	Z5	X6	Y6	Z6	X7	Y7	Z7	X8	Y8	Z8	X9	Y9	Z9	X10	Y10	Z10	X11	Y11	Z11	X12	Y12	Z12	X13	Y13	Z13	X14	Y14	Z14	X15	Y15	Z15	X16	Y16	Z16	X17	Y17	Z17	X18	Y18	Z18	X19	Y19	Z19	X20	Y20	Z20	X21	Y21	Z21	X22	Y22	Z22	X23	Y23	Z23	X24	Y24	Z24	X25	Y25	Z25	X26	Y26	Z26	X27	Y27	Z27	X28	Y28	Z28	X29	Y29	Z29	X30	Y30	Z30	X31	Y31	Z31	X32	Y32	Z32	X33	Y33	Z33	X34	Y34	Z34	X35	Y35	Z35	X36	Y36	Z36	X37	Y37	Z37	X38	Y38	Z38	X39	Y39	Z39	X40	Y40	Z40	X41	Y41	Z41	X42	Y42	Z42	

3406	17.02	365.06241	968.21820	-857.04974	612.21674	968.26544	-871.43262	453.40363	987.42804	-682.32916	543.49524	988.35107	-685.88672	316.29306	796.14539	-899.50665	359.71884	819.61377	-939.20233	338.09583	775.30109	-944.65051	328.73373	722.56378	-954.02087	458.36774	507.32602	-975.06152	339.06839	523.03009	-968.76050	319.75317	383.64920	-948.64465	326.16516	349.08292	-983.68982	346.13446	303.33392	-1006.98200	334.49326	395.14661	-1007.60720	453.43573	112.09654	-1025.63960	367.53003	86.75333	-999.44147	427.51654	47.92625	-932.03003	424.26709	67.33742	-1201.58040	455.81003	44.58247	-1143.42650	343.69687	40.97750	-1118.80290	667.48425	802.93549	-823.46344	676.55011	763.17358	-787.69263	678.46576	736.65326	-748.07025	665.73248	715.31519	-804.83844	515.22107	485.27457	-706.83417	637.64557	485.95276	-694.63434	613.62634	253.29027	-570.19617	630.87524	291.69907	-516.65143	623.10645	243.44612	-519.59882	608.31866	190.56084	-506.54691	524.94830	148.65520	-466.27304	610.22662	146.63261	-434.32932	548.31165	130.09128	-355.69601	568.19104	43.42092	-608.37213	532.51984	39.40018	-544.81238	640.22980	46.05797	-512.48407	484.91385	1468.33830	-750.18439	509.13644	1208.94240	-649.90808	304.79373	1422.67220	-778.70544	653.34247	1409.40630	-834.38422	472.67456	1367.44200	-874.70374	623.13977	1346.92290	-693.02460
3407	17.025	364.02689	969.37341	-857.95740	611.11975	968.76599	-872.00513	452.65710	987.68829	-683.01007	542.87494	988.52777	-686.63635	315.76654	797.79742	-901.09381	359.31586	820.76031	-940.35474	337.88940	776.38196	-945.69879	328.56918	723.60779	-955.17712	457.40295	507.47830	-976.15582	338.38098	523.05542	-969.64355	319.01605	383.92273	-947.77936	325.76709	348.91013	-982.33875	345.78766	302.96445	-1005.03690	334.01068	394.75916	-1006.89950	453.77338	111.65599	-1020.73920	367.63309	86.53662	-995.08112	427.35587	48.01361	-926.78326	424.83826	65.60113	-1196.83900	456.22876	43.29343	-1138.37880	343.82388	40.94268	-1113.67640	666.31866	803.33801	-824.81982	675.44452	763.26428	-789.27460	677.46606	736.44159	-749.90729	664.76910	715.51538	-806.73975	514.96246	484.65472	-710.95465	637.43298	485.88904	-698.22485	614.13770	255.13809	-570.67963	630.56134	294.35031	-517.64087	623.35919	245.94368	-519.91364	608.72131	193.20840	-506.02997	525.52216	151.59258	-465.37979	610.62299	150.50038	-433.11926	548.40393	136.34473	-354.45963	568.15509	43.36315	-603.15845	532.94269	39.06919	-540.17206	640.09766	46.73563	-508.13693	484.05872	1468.92160	-750.22980	508.19235	1209.34380	-650.24268	303.92615	1423.39730	-778.97229	652.50677	1410.00110	-834.51617	471.77121	1368.18010	-874.91150	622.33246	1347.53130	-693.24371
3408	17.03	363.06436	970.42371	-858.67609	610.12042	969.38617	-872.55243	451.85312	987.93921	-683.85242	542.14014	988.76117	-687.23169	315.31131	798.45813	-901.95056	359.19601	821.56879	-941.30188	337.77808	777.28827	-946.69507	328.32629	724.42786	-956.07855	456.61353	507.51089	-976.88947	337.84421	522.91986	-969.77533	318.28607	383.97757	-946.68219	325.47302	348.65805	-980.83875	345.52362	302.45807	-1002.82250	333.48370	394.16751	-1005.79620	454.14154	111.25656	-1015.63320	367.88492	86.33122	-990.21173	427.29553	48.07960	-921.44489	425.28748	64.08794	-1191.88180	456.35757	42.28675	-1132.98350	343.81088	40.80056	-1108.27510	665.09369	803.66974	-826.14410	673.97015	763.18896	-790.85822	676.41467	736.25195	-751.85614	663.69629	715.39484	-809.00977	514.80566	483.92575	-715.39612	637.25494	485.78238	-702.23193	614.56531	256.72980	-571.53406	630.61627	296.95395	-519.10413	623.65515	248.55740	-520.65747	609.19946	196.00108	-506.06036	526.14886	154.61349	-464.96161	610.99213	154.38048	-432.32129	548.43860	142.94168	-353.71109	568.27112	43.32296	-598.05518	532.92560	38.58655	-535.49207	639.93311	47.51298	-503.90375	483.19510	1469.56200	-750.19940	507.14523	1209.81930	-650.56195	303.03809	1424.19920	-779.11816	651.63287	1410.78440	-834.66699	470.88373	1368.97800	-875.01788	621.52222	1348.20840	-693.42407
3409	17.035	361.85019	971.65186	-859.63318	608.94440	970.09314	-873.06018	451.03500	988.21179	-684.55865	541.27722	989.04388	-687.89734	314.80667	799.16766	-902.82855	359.04053	822.02759	-942.10162	337.62637	777.86383	-947.37280	327.84039	725.15308	-957.00800	455.90771	507.27927	-977.08112	337.41806	522.91443	-969.66211	317.72806	384.04370	-945.41211	325.11929	348.30048	-978.97937	345.63834	301.94940	-1000.30360	333.17883	393.59894	-1004.44620	454.55627	110.90678	-1010.41530	368.19046	86.35049	-984.98895	427.26328	48.13933	-916.00079	425.70071	62.69566	-1187.11490	456.27338	41.28892	-1127.65200	343.70566	40.73157	-1102.91380	663.97473	804.11011	-827.53400	672.83337	763.33643	-792.65845	675.26636	736.05267	-753.82642	662.82288	715.60864	-811.27600	514.82599	483.19495	-720.24915	637.27551	485.65283	-706.68365	615.21326	258.54868	-572.93750	630.65137	299.72516	-521.19769	623.92877	251.18077	-521.78418	609.52740	198.81955	-506.36047	526.96039	157.61629	-464.78833	611.31091	158.36916	-431.92490	548.22290	149.73871	-353.48322	567.77863	43.34882	-592.49323	532.71942	38.49276	-530.94519	639.77209	48.41890	-499.84607	482.35641	1470.24870	-750.20416	506.06143	1210.49630	-650.61230	302.23984	1425.10070	-779.31573	650.71393	1411.56760	-834.75134	470.08243	1369.86940	-875.21783	620.71796	1348.92650	-693.60858
